<svg data-v-423bf9ae="" xmlns="http://www.w3.org/2000/svg" viewBox="0 0 361 99" class="iconLeft"><!----><!----><!----><g data-v-423bf9ae="" id="5ffa3816-6e30-4c79-8869-4c9ea393eda5" fill="#321926" transform="matrix(5.489478346271195,0,0,5.489478346271195,92.12261546133573,3.773244745319623)"><path d="M1.81 3.36L1.81 3.36L4.40 3.37L4.40 3.37Q6.43 3.37 7.97 4.84L7.97 4.84L7.97 4.84Q9.51 6.30 9.51 8.44L9.51 8.44L9.51 8.44Q9.51 10.57 8.00 12.10L8.00 12.10L8.00 12.10Q6.50 13.62 4.35 13.62L4.35 13.62L1.79 13.62L1.79 13.62Q0.94 13.62 0.73 13.27L0.73 13.27L0.73 13.27Q0.56 12.98 0.56 12.38L0.56 12.38L0.56 4.59L0.56 4.59Q0.56 4.26 0.58 4.10L0.58 4.10L0.58 4.10Q0.60 3.95 0.71 3.74L0.71 3.74L0.71 3.74Q0.91 3.36 1.81 3.36ZM4.40 11.14L4.40 11.14Q5.40 11.14 6.22 10.40L6.22 10.40L6.22 10.40Q7.03 9.65 7.03 8.51L7.03 8.51L7.03 8.51Q7.03 7.38 6.24 6.62L6.24 6.62L6.24 6.62Q5.45 5.85 4.38 5.85L4.38 5.85L3.04 5.85L3.04 11.14L4.40 11.14ZM15.43 6.34L15.43 6.34L15.43 6.34Q15.69 6.43 15.87 6.63L15.87 6.63L15.87 6.63Q16.04 6.83 16.04 7.28L16.04 7.28L16.04 7.28Q16.04 7.73 15.78 8.26L15.78 8.26L15.78 8.26Q15.51 8.79 15.01 8.79L15.01 8.79L15.01 8.79Q14.76 8.79 14.53 8.68L14.53 8.68L14.53 8.68Q14.29 8.57 13.92 8.57L13.92 8.57L13.92 8.57Q13.54 8.57 13.21 8.83L13.21 8.83L13.21 8.83Q12.88 9.10 12.88 9.48L12.88 9.48L12.88 12.42L12.88 12.42Q12.88 12.74 12.86 12.90L12.86 12.90L12.86 12.90Q12.84 13.06 12.73 13.27L12.73 13.27L12.73 13.27Q12.52 13.64 11.63 13.64L11.63 13.64L11.63 13.64Q10.96 13.64 10.67 13.40L10.67 13.40L10.67 13.40Q10.44 13.20 10.42 12.80L10.42 12.80L10.42 12.80Q10.42 12.66 10.42 12.39L10.42 12.39L10.42 7.48L10.42 7.48Q10.42 7.15 10.44 6.99L10.44 6.99L10.44 6.99Q10.46 6.83 10.56 6.64L10.56 6.64L10.56 6.64Q10.75 6.26 11.65 6.26L11.65 6.26L11.65 6.26Q12.49 6.26 12.70 6.58L12.70 6.58L12.70 6.58Q12.85 6.80 12.85 7.04L12.85 7.04L12.85 7.04Q12.92 6.94 13.05 6.80L13.05 6.80L13.05 6.80Q13.19 6.66 13.62 6.43L13.62 6.43L13.62 6.43Q14.06 6.19 14.38 6.19L14.38 6.19L14.38 6.19Q14.71 6.19 14.94 6.22L14.94 6.22L14.94 6.22Q15.16 6.26 15.43 6.34ZM16.81 12.40L16.81 7.49L16.81 7.49Q16.81 7.17 16.84 7.01L16.84 7.01L16.84 7.01Q16.86 6.85 16.95 6.64L16.95 6.64L16.95 6.64Q17.15 6.27 18.05 6.27L18.05 6.27L18.05 6.27Q18.72 6.27 19.00 6.51L19.00 6.51L19.00 6.51Q19.24 6.71 19.25 7.11L19.25 7.11L19.25 7.11Q19.26 7.25 19.26 7.52L19.26 7.52L19.26 12.42L19.26 12.42Q19.26 12.74 19.24 12.90L19.24 12.90L19.24 12.90Q19.22 13.06 19.11 13.27L19.11 13.27L19.11 13.27Q18.93 13.64 18.03 13.64L18.03 13.64L18.03 13.64Q17.15 13.64 16.95 13.26L16.95 13.26L16.95 13.26Q16.86 13.05 16.84 12.89L16.84 12.89L16.84 12.89Q16.81 12.74 16.81 12.40L16.81 12.40ZM19.12 4.89L19.12 4.89L19.12 4.89Q19.01 5.10 18.75 5.18L18.75 5.18L18.75 5.18Q18.48 5.26 18.04 5.26L18.04 5.26L18.04 5.26Q17.60 5.26 17.33 5.18L17.33 5.18L17.33 5.18Q17.07 5.10 16.96 4.89L16.96 4.89L16.96 4.89Q16.86 4.68 16.84 4.52L16.84 4.52L16.84 4.52Q16.81 4.35 16.81 4.03L16.81 4.03L16.81 4.03Q16.81 3.71 16.84 3.55L16.84 3.55L16.84 3.55Q16.86 3.39 16.95 3.19L16.95 3.19L16.95 3.19Q17.15 2.81 18.05 2.81L18.05 2.81L18.05 2.81Q18.93 2.81 19.11 3.19L19.11 3.19L19.11 3.19Q19.22 3.40 19.24 3.56L19.24 3.56L19.24 3.56Q19.26 3.72 19.26 4.05L19.26 4.05L19.26 4.05Q19.26 4.37 19.24 4.53L19.24 4.53L19.24 4.53Q19.22 4.69 19.12 4.89ZM24.49 6.26L24.49 6.26L24.49 6.26Q25.89 6.26 26.82 7.33L26.82 7.33L26.82 7.33Q27.75 8.40 27.75 9.94L27.75 9.94L27.75 12.40L27.75 12.40Q27.75 12.73 27.73 12.89L27.73 12.89L27.73 12.89Q27.71 13.05 27.61 13.24L27.61 13.24L27.61 13.24Q27.41 13.62 26.52 13.62L26.52 13.62L26.52 13.62Q25.52 13.62 25.37 13.10L25.37 13.10L25.37 13.10Q25.28 12.87 25.28 12.39L25.28 12.39L25.28 9.93L25.28 9.93Q25.28 9.35 24.96 9.03L24.96 9.03L24.96 9.03Q24.63 8.71 24.07 8.71L24.07 8.71L24.07 8.71Q23.52 8.71 23.18 9.04L23.18 9.04L23.18 9.04Q22.83 9.38 22.83 9.93L22.83 9.93L22.83 12.40L22.83 12.40Q22.83 12.73 22.81 12.89L22.81 12.89L22.81 12.89Q22.79 13.05 22.68 13.24L22.68 13.24L22.68 13.24Q22.50 13.62 21.60 13.62L21.60 13.62L21.60 13.62Q20.72 13.62 20.52 13.24L20.52 13.24L20.52 13.24Q20.43 13.03 20.41 12.87L20.41 12.87L20.41 12.87Q20.38 12.71 20.38 12.39L20.38 12.39L20.38 7.43L20.38 7.43Q20.38 7.13 20.41 6.97L20.41 6.97L20.41 6.97Q20.43 6.80 20.54 6.61L20.54 6.61L20.54 6.61Q20.73 6.26 21.62 6.26L21.62 6.26L21.62 6.26Q22.47 6.26 22.67 6.58L22.67 6.58L22.67 6.58Q22.81 6.82 22.81 7.15L22.81 7.15L22.81 7.15Q22.86 7.06 23.06 6.87L23.06 6.87L23.06 6.87Q23.25 6.69 23.44 6.58L23.44 6.58L23.44 6.58Q23.91 6.26 24.49 6.26ZM34.59 8.76L33.21 9.94L35.07 11.48L35.07 11.48Q35.42 11.77 35.51 11.93L35.51 11.93L35.51 11.93Q35.60 12.08 35.60 12.22L35.60 12.22L35.60 12.22Q35.60 12.56 35.17 13.13L35.17 13.13L35.17 13.13Q34.69 13.72 34.33 13.72L34.33 13.72L34.33 13.72Q34.02 13.72 33.47 13.31L33.47 13.31L33.33 13.22L33.33 13.22Q33.01 12.95 32.34 12.29L32.34 12.29L32.34 12.29Q31.67 11.62 31.32 11.34L31.32 11.34L31.32 12.42L31.32 12.42Q31.32 12.74 31.30 12.90L31.30 12.90L31.30 12.90Q31.28 13.06 31.16 13.27L31.16 13.27L31.16 13.27Q30.98 13.64 30.09 13.64L30.09 13.64L30.09 13.64Q29.20 13.64 29.01 13.26L29.01 13.26L29.01 13.26Q28.91 13.05 28.89 12.89L28.89 12.89L28.89 12.89Q28.87 12.73 28.87 12.40L28.87 12.40L28.87 4.02L28.87 4.02Q28.87 3.70 28.89 3.54L28.89 3.54L28.89 3.54Q28.91 3.37 29.01 3.16L29.01 3.16L29.01 3.16Q29.20 2.79 30.10 2.79L30.10 2.79L30.10 2.79Q30.77 2.79 31.05 3.02L31.05 3.02L31.05 3.02Q31.29 3.22 31.30 3.64L31.30 3.64L31.30 3.64Q31.32 3.77 31.32 4.03L31.32 4.03L31.32 8.47L31.32 8.47Q31.57 8.26 32.08 7.76L32.08 7.76L32.08 7.76Q32.59 7.25 32.84 7.04L32.84 7.04L33.01 6.93L33.01 6.93Q33.50 6.55 33.85 6.55L33.85 6.55L33.85 6.55Q34.20 6.55 34.66 7.12L34.66 7.12L34.66 7.12Q35.11 7.69 35.11 8.01L35.11 8.01L35.11 8.01Q35.11 8.33 34.59 8.76L34.59 8.76ZM36.37 12.40L36.37 7.49L36.37 7.49Q36.37 7.17 36.39 7.01L36.39 7.01L36.39 7.01Q36.41 6.85 36.51 6.64L36.51 6.64L36.51 6.64Q36.71 6.27 37.60 6.27L37.60 6.27L37.60 6.27Q38.28 6.27 38.56 6.51L38.56 6.51L38.56 6.51Q38.79 6.71 38.81 7.11L38.81 7.11L38.81 7.11Q38.82 7.25 38.82 7.52L38.82 7.52L38.82 12.42L38.82 12.42Q38.82 12.74 38.80 12.90L38.80 12.90L38.80 12.90Q38.78 13.06 38.67 13.27L38.67 13.27L38.67 13.27Q38.49 13.64 37.59 13.64L37.59 13.64L37.59 13.64Q36.71 13.64 36.51 13.26L36.51 13.26L36.51 13.26Q36.41 13.05 36.39 12.89L36.39 12.89L36.39 12.89Q36.37 12.74 36.37 12.40L36.37 12.40ZM38.67 4.89L38.67 4.89L38.67 4.89Q38.57 5.10 38.30 5.18L38.30 5.18L38.30 5.18Q38.04 5.26 37.60 5.26L37.60 5.26L37.60 5.26Q37.16 5.26 36.89 5.18L36.89 5.18L36.89 5.18Q36.62 5.10 36.52 4.89L36.52 4.89L36.52 4.89Q36.41 4.68 36.39 4.52L36.39 4.52L36.39 4.52Q36.37 4.35 36.37 4.03L36.37 4.03L36.37 4.03Q36.37 3.71 36.39 3.55L36.39 3.55L36.39 3.55Q36.41 3.39 36.51 3.19L36.51 3.19L36.51 3.19Q36.71 2.81 37.60 2.81L37.60 2.81L37.60 2.81Q38.49 2.81 38.67 3.19L38.67 3.19L38.67 3.19Q38.78 3.40 38.80 3.56L38.80 3.56L38.80 3.56Q38.82 3.72 38.82 4.05L38.82 4.05L38.82 4.05Q38.82 4.37 38.80 4.53L38.80 4.53L38.80 4.53Q38.78 4.69 38.67 4.89ZM44.23 8.74L44.23 8.74L43.32 8.68L43.32 10.61L43.32 10.61Q43.32 10.99 43.43 11.16L43.43 11.16L43.43 11.16Q43.55 11.33 43.88 11.33L43.88 11.33L43.88 11.33Q44.21 11.33 44.39 11.35L44.39 11.35L44.39 11.35Q44.56 11.37 44.76 11.48L44.76 11.48L44.76 11.48Q45.08 11.66 45.08 12.42L45.08 12.42L45.08 12.42Q45.08 13.30 44.69 13.50L44.69 13.50L44.69 13.50Q44.48 13.59 44.32 13.62L44.32 13.62L44.32 13.62Q44.16 13.64 43.85 13.64L43.85 13.64L43.85 13.64Q42.39 13.64 41.64 12.98L41.64 12.98L41.64 12.98Q40.88 12.32 40.88 10.75L40.88 10.75L40.88 8.68L40.88 8.68Q40.61 8.72 40.31 8.72L40.31 8.72L40.31 8.72Q40.00 8.72 39.79 8.48L39.79 8.48L39.79 8.48Q39.59 8.25 39.59 7.67L39.59 7.67L39.59 7.67Q39.59 7.10 39.66 6.84L39.66 6.84L39.66 6.84Q39.73 6.58 39.86 6.47L39.86 6.47L39.86 6.47Q40.08 6.29 40.42 6.29L40.42 6.29L40.88 6.34L40.88 4.90L40.88 4.90Q40.88 4.58 40.90 4.42L40.90 4.42L40.90 4.42Q40.92 4.27 41.03 4.09L41.03 4.09L41.03 4.09Q41.22 3.74 42.11 3.74L42.11 3.74L42.11 3.74Q43.06 3.74 43.25 4.26L43.25 4.26L43.25 4.26Q43.32 4.48 43.32 4.97L43.32 4.97L43.32 6.34L43.32 6.34Q43.93 6.29 44.25 6.29L44.25 6.29L44.25 6.29Q44.56 6.29 44.72 6.31L44.72 6.31L44.72 6.31Q44.88 6.33 45.09 6.44L45.09 6.44L45.09 6.44Q45.46 6.62 45.46 7.52L45.46 7.52L45.46 7.52Q45.46 8.40 45.08 8.60L45.08 8.60L45.08 8.60Q44.87 8.69 44.71 8.71L44.71 8.71L44.71 8.71Q44.55 8.74 44.23 8.74ZM46.37 11.50L46.37 11.50L46.37 11.50Q46.51 11.23 46.80 11.13L46.80 11.13L46.80 11.13Q47.08 11.03 47.69 11.03L47.69 11.03L47.69 11.03Q48.30 11.03 48.57 11.30L48.57 11.30L48.57 11.30Q48.85 11.56 48.85 12.14L48.85 12.14L48.85 12.36L48.85 12.36Q48.85 12.70 48.83 12.86L48.83 12.86L48.83 12.86Q48.80 13.02 48.69 13.24L48.69 13.24L48.69 13.24Q48.47 13.65 47.62 13.65L47.62 13.65L47.62 13.65Q46.77 13.65 46.50 13.38L46.50 13.38L46.50 13.38Q46.23 13.10 46.23 12.32L46.23 12.32L46.23 12.32Q46.23 11.77 46.37 11.50ZM48.24 9.87L48.24 9.87L48.24 9.87Q47.98 9.94 47.53 9.94L47.53 9.94L47.53 9.94Q47.08 9.94 46.82 9.87L46.82 9.87L46.82 9.87Q46.55 9.80 46.45 9.62L46.45 9.62L46.45 9.62Q46.34 9.44 46.32 9.30L46.32 9.30L46.32 9.30Q46.30 9.16 46.30 8.86L46.30 8.86L46.30 4.42L46.30 4.42Q46.30 4.13 46.32 3.98L46.32 3.98L46.32 3.98Q46.34 3.84 46.45 3.65L46.45 3.65L46.45 3.65Q46.56 3.47 46.83 3.40L46.83 3.40L46.83 3.40Q47.10 3.32 47.54 3.32L47.54 3.32L47.54 3.32Q47.99 3.32 48.26 3.40L48.26 3.40L48.26 3.40Q48.52 3.47 48.63 3.66L48.63 3.66L48.63 3.66Q48.73 3.85 48.76 4.00L48.76 4.00L48.76 4.00Q48.78 4.14 48.78 4.44L48.78 4.44L48.78 8.88L48.78 8.88Q48.78 9.17 48.76 9.31L48.76 9.31L48.76 9.31Q48.73 9.45 48.62 9.63L48.62 9.63L48.62 9.63Q48.51 9.80 48.24 9.87Z"></path></g><defs data-v-423bf9ae=""><linearGradient data-v-423bf9ae="" gradientTransform="rotate(25)" id="9712173f-2211-425b-9ac4-df2ec44c051a" x1="0%" y1="0%" x2="100%" y2="0%"><stop data-v-423bf9ae="" offset="0%" style="stop-color: rgb(212, 24, 234); stop-opacity: 1;"></stop><stop data-v-423bf9ae="" offset="100%" style="stop-color: rgb(236, 208, 98); stop-opacity: 1;"></stop></linearGradient></defs><g data-v-423bf9ae="" id="86214607-3ad7-4448-948c-03b0964d557c" transform="matrix(1.0444444444444445,0,0,1.0444444444444445,-12.13169581095378,-0.13333333333333997)" stroke="none" fill="url(#9712173f-2211-425b-9ac4-df2ec44c051a)"><path d="M54.3 45.656l7.404-26.652h-29.7a2 2 0 0 0-2 2V44.14c4.86-.664 10.384-.024 16.56.708 2.468.296 5.068.568 7.736.808zM72 19h-6.148l-7.488 26.952c4.873.276 10.053.268 15.633-.46V21C74 19.9 73.1 19 72 19zM57.264 49.912L47.928 83.54a2 2 0 0 1-2.46 1.388 2 2 0 0 1-1.392-2.46l9.136-32.88a304.113 304.113 0 0 1-7.112-.771c-6.16-.732-11.612-1.356-16.088-.625V93c0 1.1.896 2 2 2h40c1.104 0 2-.9 2-2V49.464c-3.484.425-6.88.685-10.084.685a105.168 105.168 0 0 1-6.664-.237zM83.936 6.516a1.995 1.995 0 0 0-2.42-1.456l-16 4a1.995 1.995 0 0 0-1.443 1.404L62.813 15h4.151l.652-2.34 14.868-3.72a1.994 1.994 0 0 0 1.452-2.424z"></path><path d="M49.836 12.104C46.412 5.256 39.576 1 32 1 20.972 1 12 9.972 12 21c0 7.576 4.252 14.412 11.104 17.836a2.001 2.001 0 0 0 2.684-.892c.192-.38.212-.792.152-1.192.016 0 .04-.012.06-.02v-10.9l-2.584 2.584c-.392.392-.904.584-1.416.584s-1.02-.196-1.416-.584a2.001 2.001 0 0 1 0-2.828l4-4A1.993 1.993 0 0 1 26 21c0-.892.208-1.728.56-2.492l-3.992-4.116a1.998 1.998 0 0 1 .044-2.828 2.002 2.002 0 0 1 2.828.044l3.916 4.036c.804-.396 1.696-.644 2.652-.644 0-.512.196-1.024.584-1.416l4-4c.78-.78 2.048-.78 2.828 0 .78.78.78 2.048 0 2.828L36.836 15h11.816c0-.044.016-.088.016-.136.092-.032.191-.032.28-.076a2.002 2.002 0 0 0 .888-2.684z"></path></g><!----></svg>