<svg id="visual" viewBox="0 0 900 600" width="900" height="600" xmlns="http://www.w3.org/2000/svg" xmlns:xlink="http://www.w3.org/1999/xlink" version="1.1"><rect x="0" y="0" width="900" height="600" fill="#fff"></rect><path d="M0 193L21.5 188.5C43 184 86 175 128.8 168.5C171.7 162 214.3 158 257.2 152.7C300 147.3 343 140.7 385.8 138C428.7 135.3 471.3 136.7 514.2 138.5C557 140.3 600 142.7 642.8 148.7C685.7 154.7 728.3 164.3 771.2 163.5C814 162.7 857 151.3 878.5 145.7L900 140L900 0L878.5 0C857 0 814 0 771.2 0C728.3 0 685.7 0 642.8 0C600 0 557 0 514.2 0C471.3 0 428.7 0 385.8 0C343 0 300 0 257.2 0C214.3 0 171.7 0 128.8 0C86 0 43 0 21.5 0L0 0Z" fill="#f9b244"></path><path d="M0 126L21.5 124.2C43 122.3 86 118.7 128.8 115C171.7 111.3 214.3 107.7 257.2 110.7C300 113.7 343 123.3 385.8 128.7C428.7 134 471.3 135 514.2 135.7C557 136.3 600 136.7 642.8 138.2C685.7 139.7 728.3 142.3 771.2 139.5C814 136.7 857 128.3 878.5 124.2L900 120L900 0L878.5 0C857 0 814 0 771.2 0C728.3 0 685.7 0 642.8 0C600 0 557 0 514.2 0C471.3 0 428.7 0 385.8 0C343 0 300 0 257.2 0C214.3 0 171.7 0 128.8 0C86 0 43 0 21.5 0L0 0Z" fill="#f6a331"></path><path d="M0 89L21.5 91.7C43 94.3 86 99.7 128.8 99C171.7 98.3 214.3 91.7 257.2 91.7C300 91.7 343 98.3 385.8 99.2C428.7 100 471.3 95 514.2 89.2C557 83.3 600 76.7 642.8 74.7C685.7 72.7 728.3 75.3 771.2 78.2C814 81 857 84 878.5 85.5L900 87L900 0L878.5 0C857 0 814 0 771.2 0C728.3 0 685.7 0 642.8 0C600 0 557 0 514.2 0C471.3 0 428.7 0 385.8 0C343 0 300 0 257.2 0C214.3 0 171.7 0 128.8 0C86 0 43 0 21.5 0L0 0Z" fill="#f39117"></path><path d="M0 47L21.5 49C43 51 86 55 128.8 54C171.7 53 214.3 47 257.2 45.2C300 43.3 343 45.7 385.8 49.2C428.7 52.7 471.3 57.3 514.2 57.3C557 57.3 600 52.7 642.8 51.7C685.7 50.7 728.3 53.3 771.2 56C814 58.7 857 61.3 878.5 62.7L900 64L900 0L878.5 0C857 0 814 0 771.2 0C728.3 0 685.7 0 642.8 0C600 0 557 0 514.2 0C471.3 0 428.7 0 385.8 0C343 0 300 0 257.2 0C214.3 0 171.7 0 128.8 0C86 0 43 0 21.5 0L0 0Z" fill="#f28500"></path>
<path d="M0 364L21.5 367.8C43 371.7 86 379.3 128.8 391.3C171.7 403.3 214.3 419.7 257.2 422.8C300 426 343 416 385.8 410.3C428.7 404.7 471.3 403.3 514.2 401.2C557 399 600 396 642.8 396.8C685.7 397.7 728.3 402.3 771.2 410.7C814 419 857 431 878.5 437L900 443L900 601L878.5 601C857 601 814 601 771.2 601C728.3 601 685.7 601 642.8 601C600 601 557 601 514.2 601C471.3 601 428.7 601 385.8 601C343 601 300 601 257.2 601C214.3 601 171.7 601 128.8 601C86 601 43 601 21.5 601L0 601Z" fill="#f9b244"></path><path d="M0 399L21.5 407.3C43 415.7 86 432.3 128.8 431.8C171.7 431.3 214.3 413.7 257.2 415C300 416.3 343 436.7 385.8 439.3C428.7 442 471.3 427 514.2 425.7C557 424.3 600 436.7 642.8 447.5C685.7 458.3 728.3 467.7 771.2 463.5C814 459.3 857 441.7 878.5 432.8L900 424L900 601L878.5 601C857 601 814 601 771.2 601C728.3 601 685.7 601 642.8 601C600 601 557 601 514.2 601C471.3 601 428.7 601 385.8 601C343 601 300 601 257.2 601C214.3 601 171.7 601 128.8 601C86 601 43 601 21.5 601L0 601Z" fill="#f7a736"></path><path d="M0 509L21.5 505.5C43 502 86 495 128.8 495.3C171.7 495.7 214.3 503.3 257.2 500.5C300 497.7 343 484.3 385.8 478C428.7 471.7 471.3 472.3 514.2 478.5C557 484.7 600 496.3 642.8 502C685.7 507.7 728.3 507.3 771.2 496.2C814 485 857 463 878.5 452L900 441L900 601L878.5 601C857 601 814 601 771.2 601C728.3 601 685.7 601 642.8 601C600 601 557 601 514.2 601C471.3 601 428.7 601 385.8 601C343 601 300 601 257.2 601C214.3 601 171.7 601 128.8 601C86 601 43 601 21.5 601L0 601Z" fill="#f59c27"></path><path d="M0 481L21.5 489.5C43 498 86 515 128.8 523.5C171.7 532 214.3 532 257.2 526.8C300 521.7 343 511.3 385.8 512.5C428.7 513.7 471.3 526.3 514.2 526C557 525.7 600 512.3 642.8 510.8C685.7 509.3 728.3 519.7 771.2 520.2C814 520.7 857 511.3 878.5 506.7L900 502L900 601L878.5 601C857 601 814 601 771.2 601C728.3 601 685.7 601 642.8 601C600 601 557 601 514.2 601C471.3 601 428.7 601 385.8 601C343 601 300 601 257.2 601C214.3 601 171.7 601 128.8 601C86 601 43 601 21.5 601L0 601Z" fill="#f39117"></path><path d="M0 541L21.5 539.8C43 538.7 86 536.3 128.8 536.7C171.7 537 214.3 540 257.2 544.3C300 548.7 343 554.3 385.8 558.5C428.7 562.7 471.3 565.3 514.2 561.5C557 557.7 600 547.3 642.8 542C685.7 536.7 728.3 536.3 771.2 537.7C814 539 857 542 878.5 543.5L900 545L900 601L878.5 601C857 601 814 601 771.2 601C728.3 601 685.7 601 642.8 601C600 601 557 601 514.2 601C471.3 601 428.7 601 385.8 601C343 601 300 601 257.2 601C214.3 601 171.7 601 128.8 601C86 601 43 601 21.5 601L0 601Z" fill="#f28500"></path>
</svg>