<svg id="visual" viewBox="0 0 900 600" width="900" height="600" xmlns="http://www.w3.org/2000/svg" xmlns:xlink="http://www.w3.org/1999/xlink" version="1.1"><rect x="0" y="0" width="900" height="600" fill="#fff"></rect><path d="M0 186L21.5 178.2C43 170.3 86 154.7 128.8 151.3C171.7 148 214.3 157 257.2 158.8C300 160.7 343 155.3 385.8 157.3C428.7 159.3 471.3 168.7 514.2 167.8C557 167 600 156 642.8 154.3C685.7 152.7 728.3 160.3 771.2 159.3C814 158.3 857 148.7 878.5 143.8L900 139L900 0L878.5 0C857 0 814 0 771.2 0C728.3 0 685.7 0 642.8 0C600 0 557 0 514.2 0C471.3 0 428.7 0 385.8 0C343 0 300 0 257.2 0C214.3 0 171.7 0 128.8 0C86 0 43 0 21.5 0L0 0Z" fill="#570861"></path><path d="M0 115L21.5 120.3C43 125.7 86 136.3 128.8 137.2C171.7 138 214.3 129 257.2 123C300 117 343 114 385.8 114C428.7 114 471.3 117 514.2 118.3C557 119.7 600 119.3 642.8 121.2C685.7 123 728.3 127 771.2 129.3C814 131.7 857 132.3 878.5 132.7L900 133L900 0L878.5 0C857 0 814 0 771.2 0C728.3 0 685.7 0 642.8 0C600 0 557 0 514.2 0C471.3 0 428.7 0 385.8 0C343 0 300 0 257.2 0C214.3 0 171.7 0 128.8 0C86 0 43 0 21.5 0L0 0Z" fill="#672980"></path><path d="M0 68L21.5 74.3C43 80.7 86 93.3 128.8 99C171.7 104.7 214.3 103.3 257.2 103.3C300 103.3 343 104.7 385.8 102.2C428.7 99.7 471.3 93.3 514.2 93.2C557 93 600 99 642.8 96.8C685.7 94.7 728.3 84.3 771.2 79.3C814 74.3 857 74.7 878.5 74.8L900 75L900 0L878.5 0C857 0 814 0 771.2 0C728.3 0 685.7 0 642.8 0C600 0 557 0 514.2 0C471.3 0 428.7 0 385.8 0C343 0 300 0 257.2 0C214.3 0 171.7 0 128.8 0C86 0 43 0 21.5 0L0 0Z" fill="#7643a0"></path><path d="M0 59L21.5 56C43 53 86 47 128.8 45.7C171.7 44.3 214.3 47.7 257.2 51.8C300 56 343 61 385.8 61.8C428.7 62.7 471.3 59.3 514.2 57.7C557 56 600 56 642.8 57.7C685.7 59.3 728.3 62.7 771.2 64C814 65.3 857 64.7 878.5 64.3L900 64L900 0L878.5 0C857 0 814 0 771.2 0C728.3 0 685.7 0 642.8 0C600 0 557 0 514.2 0C471.3 0 428.7 0 385.8 0C343 0 300 0 257.2 0C214.3 0 171.7 0 128.8 0C86 0 43 0 21.5 0L0 0Z" fill="#845ec2"></path></svg>