<svg id="visual" viewBox="0 0 900 600" width="900" height="600" xmlns="http://www.w3.org/2000/svg" xmlns:xlink="http://www.w3.org/1999/xlink" version="1.1"><rect x="0" y="0" width="900" height="600" fill="#fff"></rect><path d="M0 193L21.5 188.5C43 184 86 175 128.8 168.5C171.7 162 214.3 158 257.2 152.7C300 147.3 343 140.7 385.8 138C428.7 135.3 471.3 136.7 514.2 138.5C557 140.3 600 142.7 642.8 148.7C685.7 154.7 728.3 164.3 771.2 163.5C814 162.7 857 151.3 878.5 145.7L900 140L900 0L878.5 0C857 0 814 0 771.2 0C728.3 0 685.7 0 642.8 0C600 0 557 0 514.2 0C471.3 0 428.7 0 385.8 0C343 0 300 0 257.2 0C214.3 0 171.7 0 128.8 0C86 0 43 0 21.5 0L0 0Z" fill="#f9b244"></path><path d="M0 126L21.5 124.2C43 122.3 86 118.7 128.8 115C171.7 111.3 214.3 107.7 257.2 110.7C300 113.7 343 123.3 385.8 128.7C428.7 134 471.3 135 514.2 135.7C557 136.3 600 136.7 642.8 138.2C685.7 139.7 728.3 142.3 771.2 139.5C814 136.7 857 128.3 878.5 124.2L900 120L900 0L878.5 0C857 0 814 0 771.2 0C728.3 0 685.7 0 642.8 0C600 0 557 0 514.2 0C471.3 0 428.7 0 385.8 0C343 0 300 0 257.2 0C214.3 0 171.7 0 128.8 0C86 0 43 0 21.5 0L0 0Z" fill="#f6a331"></path><path d="M0 89L21.5 91.7C43 94.3 86 99.7 128.8 99C171.7 98.3 214.3 91.7 257.2 91.7C300 91.7 343 98.3 385.8 99.2C428.7 100 471.3 95 514.2 89.2C557 83.3 600 76.7 642.8 74.7C685.7 72.7 728.3 75.3 771.2 78.2C814 81 857 84 878.5 85.5L900 87L900 0L878.5 0C857 0 814 0 771.2 0C728.3 0 685.7 0 642.8 0C600 0 557 0 514.2 0C471.3 0 428.7 0 385.8 0C343 0 300 0 257.2 0C214.3 0 171.7 0 128.8 0C86 0 43 0 21.5 0L0 0Z" fill="#f39117"></path><path d="M0 47L21.5 49C43 51 86 55 128.8 54C171.7 53 214.3 47 257.2 45.2C300 43.3 343 45.7 385.8 49.2C428.7 52.7 471.3 57.3 514.2 57.3C557 57.3 600 52.7 642.8 51.7C685.7 50.7 728.3 53.3 771.2 56C814 58.7 857 61.3 878.5 62.7L900 64L900 0L878.5 0C857 0 814 0 771.2 0C728.3 0 685.7 0 642.8 0C600 0 557 0 514.2 0C471.3 0 428.7 0 385.8 0C343 0 300 0 257.2 0C214.3 0 171.7 0 128.8 0C86 0 43 0 21.5 0L0 0Z" fill="#f28500"></path></svg>